<svg width="167" height="51" viewBox="0 0 167 51" fill="none" xmlns="http://www.w3.org/2000/svg">
<path d="M60.3389 11.3726L53.5713 32H48.1196L57.3652 7.11719H60.8345L60.3389 11.3726ZM65.9614 32L59.1768 11.3726L58.6299 7.11719H62.1333L71.4302 32H65.9614ZM65.6538 22.7373V26.7534H52.5117V22.7373H65.6538ZM85.0371 27.5737V13.5088H89.959V32H85.3276L85.0371 27.5737ZM85.584 23.7798L87.0366 23.7456C87.0366 24.9761 86.8942 26.1211 86.6094 27.1807C86.3245 28.2288 85.8973 29.1403 85.3276 29.915C84.758 30.6784 84.0402 31.2765 83.1743 31.7095C82.3084 32.131 81.2887 32.3418 80.1152 32.3418C79.2152 32.3418 78.3835 32.2165 77.6201 31.9658C76.8682 31.7038 76.2188 31.2993 75.6719 30.7524C75.1364 30.1942 74.7148 29.4821 74.4072 28.6162C74.111 27.7389 73.9629 26.6851 73.9629 25.4546V13.5088H78.8848V25.4888C78.8848 26.0356 78.9474 26.4971 79.0728 26.873C79.2095 27.249 79.3975 27.5566 79.6367 27.7959C79.876 28.0352 80.1551 28.2061 80.4741 28.3086C80.8045 28.4111 81.1691 28.4624 81.5679 28.4624C82.5819 28.4624 83.3794 28.2573 83.9604 27.8472C84.5529 27.437 84.9688 26.8787 85.208 26.1724C85.4587 25.4546 85.584 24.6571 85.584 23.7798ZM103.651 13.5088V16.9951H92.8848V13.5088H103.651ZM95.5508 8.9458H100.473V26.4287C100.473 26.9642 100.541 27.3743 100.678 27.6592C100.826 27.944 101.042 28.1434 101.327 28.2573C101.612 28.3599 101.971 28.4111 102.404 28.4111C102.711 28.4111 102.985 28.3997 103.224 28.377C103.475 28.3428 103.686 28.3086 103.856 28.2744L103.874 31.8975C103.452 32.0342 102.996 32.1424 102.506 32.2222C102.016 32.3019 101.475 32.3418 100.883 32.3418C99.8005 32.3418 98.8548 32.1652 98.0459 31.812C97.2484 31.4474 96.6331 30.8664 96.2002 30.0688C95.7673 29.2713 95.5508 28.2231 95.5508 26.9243V8.9458ZM106.099 22.9424V22.5835C106.099 21.2277 106.292 19.9801 106.68 18.8408C107.067 17.6901 107.631 16.6932 108.372 15.8501C109.112 15.007 110.024 14.3519 111.106 13.8848C112.188 13.4062 113.43 13.167 114.832 13.167C116.233 13.167 117.48 13.4062 118.574 13.8848C119.668 14.3519 120.585 15.007 121.326 15.8501C122.078 16.6932 122.647 17.6901 123.035 18.8408C123.422 19.9801 123.616 21.2277 123.616 22.5835V22.9424C123.616 24.2868 123.422 25.5343 123.035 26.6851C122.647 27.8244 122.078 28.8213 121.326 29.6758C120.585 30.5189 119.674 31.174 118.591 31.6411C117.509 32.1082 116.267 32.3418 114.866 32.3418C113.464 32.3418 112.217 32.1082 111.123 31.6411C110.041 31.174 109.124 30.5189 108.372 29.6758C107.631 28.8213 107.067 27.8244 106.68 26.6851C106.292 25.5343 106.099 24.2868 106.099 22.9424ZM111.021 22.5835V22.9424C111.021 23.7171 111.089 24.4406 111.226 25.1128C111.362 25.785 111.579 26.3774 111.875 26.8901C112.183 27.3914 112.581 27.7845 113.071 28.0693C113.561 28.3542 114.159 28.4966 114.866 28.4966C115.549 28.4966 116.136 28.3542 116.626 28.0693C117.116 27.7845 117.509 27.3914 117.805 26.8901C118.101 26.3774 118.318 25.785 118.455 25.1128C118.603 24.4406 118.677 23.7171 118.677 22.9424V22.5835C118.677 21.8315 118.603 21.1252 118.455 20.4644C118.318 19.7922 118.096 19.1997 117.788 18.687C117.492 18.1629 117.099 17.7528 116.609 17.4565C116.119 17.1603 115.527 17.0122 114.832 17.0122C114.137 17.0122 113.544 17.1603 113.054 17.4565C112.576 17.7528 112.183 18.1629 111.875 18.687C111.579 19.1997 111.362 19.7922 111.226 20.4644C111.089 21.1252 111.021 21.8315 111.021 22.5835ZM132.711 5.75V32H127.772V5.75H132.711ZM142.849 13.5088V32H137.91V13.5088H142.849ZM137.602 8.68945C137.602 7.97168 137.853 7.37923 138.354 6.91211C138.855 6.44499 139.528 6.21143 140.371 6.21143C141.202 6.21143 141.869 6.44499 142.37 6.91211C142.883 7.37923 143.139 7.97168 143.139 8.68945C143.139 9.40723 142.883 9.99967 142.37 10.4668C141.869 10.9339 141.202 11.1675 140.371 11.1675C139.528 11.1675 138.855 10.9339 138.354 10.4668C137.853 9.99967 137.602 9.40723 137.602 8.68945ZM147.791 5.75H152.713V27.7617L152.217 32H147.791V5.75ZM164.419 22.5664V22.9253C164.419 24.3039 164.271 25.5685 163.975 26.7192C163.69 27.87 163.246 28.8669 162.642 29.71C162.038 30.5417 161.286 31.1911 160.386 31.6582C159.498 32.1139 158.449 32.3418 157.242 32.3418C156.114 32.3418 155.134 32.1139 154.302 31.6582C153.482 31.2025 152.793 30.5588 152.234 29.7271C151.676 28.8953 151.226 27.9212 150.884 26.8047C150.542 25.6882 150.286 24.4691 150.115 23.1475V22.3613C150.286 21.0397 150.542 19.8206 150.884 18.7041C151.226 17.5876 151.676 16.6134 152.234 15.7817C152.793 14.95 153.482 14.3063 154.302 13.8506C155.123 13.3949 156.091 13.167 157.208 13.167C158.427 13.167 159.486 13.4006 160.386 13.8677C161.298 14.3234 162.05 14.9728 162.642 15.8159C163.246 16.6476 163.69 17.6388 163.975 18.7896C164.271 19.9289 164.419 21.1878 164.419 22.5664ZM159.498 22.9253V22.5664C159.498 21.8145 159.441 21.1081 159.327 20.4473C159.224 19.7751 159.042 19.1883 158.78 18.687C158.518 18.1743 158.159 17.7699 157.703 17.4736C157.259 17.1774 156.683 17.0293 155.977 17.0293C155.305 17.0293 154.735 17.1432 154.268 17.3711C153.801 17.599 153.414 17.918 153.106 18.3281C152.81 18.7383 152.588 19.2282 152.439 19.7979C152.291 20.3561 152.2 20.9714 152.166 21.6436V23.8823C152.2 24.7824 152.348 25.5799 152.61 26.2749C152.884 26.9585 153.294 27.4997 153.841 27.8984C154.399 28.2858 155.123 28.4795 156.011 28.4795C156.706 28.4795 157.282 28.3428 157.737 28.0693C158.193 27.7959 158.546 27.4085 158.797 26.9072C159.059 26.4059 159.241 25.8192 159.344 25.147C159.446 24.4634 159.498 23.7228 159.498 22.9253Z" fill="#18181B"/>
<path d="M53.7056 45.645V41.5654C53.7056 41.2529 53.6421 40.9819 53.5151 40.7524C53.3931 40.5181 53.2075 40.3374 52.9585 40.2104C52.7095 40.0835 52.4019 40.02 52.0356 40.02C51.6938 40.02 51.3936 40.0786 51.1348 40.1958C50.8809 40.313 50.6807 40.4668 50.5342 40.6572C50.3926 40.8477 50.3218 41.0527 50.3218 41.2725H48.9668C48.9668 40.9893 49.04 40.7085 49.1865 40.4302C49.333 40.1519 49.543 39.9004 49.8164 39.6758C50.0947 39.4463 50.4268 39.2656 50.8125 39.1338C51.2031 38.9971 51.6377 38.9287 52.1162 38.9287C52.6924 38.9287 53.2002 39.0264 53.6396 39.2217C54.084 39.417 54.4307 39.7124 54.6797 40.1079C54.9336 40.4985 55.0605 40.9893 55.0605 41.5801V45.2715C55.0605 45.5352 55.0825 45.8159 55.1265 46.1138C55.1753 46.4116 55.2461 46.668 55.3389 46.8828V47H53.9253C53.8569 46.8438 53.8032 46.6362 53.7642 46.3774C53.7251 46.1138 53.7056 45.8696 53.7056 45.645ZM53.9399 42.1953L53.9546 43.1475H52.585C52.1992 43.1475 51.855 43.1792 51.5522 43.2427C51.2495 43.3013 50.9956 43.3916 50.7905 43.5137C50.5854 43.6357 50.4292 43.7896 50.3218 43.9751C50.2144 44.1558 50.1606 44.3682 50.1606 44.6123C50.1606 44.8613 50.2168 45.0884 50.3291 45.2935C50.4414 45.4985 50.6099 45.6621 50.8345 45.7842C51.064 45.9014 51.3447 45.96 51.6768 45.96C52.0918 45.96 52.458 45.8721 52.7754 45.6963C53.0928 45.5205 53.3442 45.3057 53.5298 45.0518C53.7202 44.7979 53.8228 44.5513 53.8374 44.312L54.416 44.9639C54.3818 45.1689 54.2891 45.396 54.1377 45.645C53.9863 45.894 53.7837 46.1333 53.5298 46.3628C53.2808 46.5874 52.9829 46.7754 52.6362 46.9268C52.2944 47.0732 51.9087 47.1465 51.479 47.1465C50.9419 47.1465 50.4707 47.0415 50.0654 46.8315C49.665 46.6216 49.3525 46.3408 49.1279 45.9893C48.9082 45.6328 48.7983 45.2349 48.7983 44.7954C48.7983 44.3706 48.8813 43.9971 49.0474 43.6748C49.2134 43.3477 49.4526 43.0767 49.7651 42.8618C50.0776 42.6421 50.4536 42.4761 50.8931 42.3638C51.3325 42.2515 51.8232 42.1953 52.3652 42.1953H53.9399ZM62.0405 45.1689V39.0752H63.4028V47H62.1064L62.0405 45.1689ZM62.2969 43.499L62.8608 43.4844C62.8608 44.0117 62.8047 44.5 62.6924 44.9492C62.585 45.3936 62.4092 45.7793 62.165 46.1064C61.9209 46.4336 61.6011 46.6899 61.2056 46.8755C60.8101 47.0562 60.3291 47.1465 59.7627 47.1465C59.377 47.1465 59.0229 47.0903 58.7007 46.978C58.3833 46.8657 58.1099 46.6924 57.8804 46.458C57.6509 46.2236 57.4727 45.9185 57.3457 45.5425C57.2236 45.1665 57.1626 44.7148 57.1626 44.1875V39.0752H58.5176V44.2021C58.5176 44.5586 58.5566 44.854 58.6348 45.0884C58.7178 45.3179 58.8276 45.501 58.9644 45.6377C59.106 45.7695 59.2622 45.8623 59.4331 45.916C59.6089 45.9697 59.7896 45.9966 59.9751 45.9966C60.5513 45.9966 61.0078 45.8867 61.3447 45.667C61.6816 45.4424 61.9233 45.1421 62.0698 44.7661C62.2212 44.3853 62.2969 43.9629 62.2969 43.499ZM68.7861 39.0752V40.1152H64.5015V39.0752H68.7861ZM65.9517 37.1489H67.3066V45.0371C67.3066 45.3057 67.3481 45.5083 67.4312 45.645C67.5142 45.7817 67.6216 45.8721 67.7534 45.916C67.8853 45.96 68.0269 45.9819 68.1782 45.9819C68.2905 45.9819 68.4077 45.9722 68.5298 45.9526C68.6567 45.9282 68.752 45.9087 68.8154 45.894L68.8228 47C68.7153 47.0342 68.5737 47.0659 68.3979 47.0952C68.2271 47.1294 68.0195 47.1465 67.7754 47.1465C67.4434 47.1465 67.1382 47.0806 66.8599 46.9487C66.5815 46.8169 66.3594 46.5972 66.1934 46.2896C66.0322 45.9771 65.9517 45.5571 65.9517 45.0298V37.1489ZM69.8701 43.1255V42.957C69.8701 42.3857 69.9531 41.856 70.1191 41.3677C70.2852 40.8745 70.5244 40.4473 70.8369 40.0859C71.1494 39.7197 71.5278 39.4365 71.9722 39.2363C72.4165 39.0312 72.9146 38.9287 73.4663 38.9287C74.0229 38.9287 74.5234 39.0312 74.9678 39.2363C75.417 39.4365 75.7979 39.7197 76.1104 40.0859C76.4277 40.4473 76.6694 40.8745 76.8354 41.3677C77.0015 41.856 77.0845 42.3857 77.0845 42.957V43.1255C77.0845 43.6968 77.0015 44.2266 76.8354 44.7148C76.6694 45.2031 76.4277 45.6304 76.1104 45.9966C75.7979 46.3579 75.4194 46.6411 74.9751 46.8462C74.5356 47.0464 74.0376 47.1465 73.481 47.1465C72.9243 47.1465 72.4238 47.0464 71.9795 46.8462C71.5352 46.6411 71.1543 46.3579 70.8369 45.9966C70.5244 45.6304 70.2852 45.2031 70.1191 44.7148C69.9531 44.2266 69.8701 43.6968 69.8701 43.1255ZM71.2251 42.957V43.1255C71.2251 43.521 71.2715 43.8945 71.3643 44.2461C71.457 44.5928 71.5962 44.9004 71.7817 45.1689C71.9722 45.4375 72.209 45.6499 72.4922 45.8062C72.7754 45.9575 73.105 46.0332 73.481 46.0332C73.8521 46.0332 74.1768 45.9575 74.4551 45.8062C74.7383 45.6499 74.9727 45.4375 75.1582 45.1689C75.3438 44.9004 75.4829 44.5928 75.5757 44.2461C75.6733 43.8945 75.7222 43.521 75.7222 43.1255V42.957C75.7222 42.5664 75.6733 42.1978 75.5757 41.8511C75.4829 41.4995 75.3413 41.1895 75.1509 40.9209C74.9653 40.6475 74.731 40.4326 74.4478 40.2764C74.1694 40.1201 73.8423 40.042 73.4663 40.042C73.0952 40.042 72.7681 40.1201 72.4849 40.2764C72.2065 40.4326 71.9722 40.6475 71.7817 40.9209C71.5962 41.1895 71.457 41.4995 71.3643 41.8511C71.2715 42.1978 71.2251 42.5664 71.2251 42.957ZM80.1313 40.6499V47H78.769V39.0752H80.0581L80.1313 40.6499ZM79.853 42.7373L79.2231 42.7153C79.228 42.1733 79.2988 41.6729 79.4355 41.2139C79.5723 40.75 79.7749 40.3472 80.0435 40.0054C80.312 39.6636 80.6465 39.3999 81.0469 39.2144C81.4473 39.0239 81.9111 38.9287 82.4385 38.9287C82.8096 38.9287 83.1514 38.9824 83.4639 39.0898C83.7764 39.1924 84.0474 39.356 84.2769 39.5806C84.5063 39.8052 84.6846 40.0933 84.8115 40.4448C84.9385 40.7964 85.002 41.2212 85.002 41.7192V47H83.647V41.7852C83.647 41.3701 83.5762 41.0381 83.4346 40.7891C83.2979 40.54 83.1025 40.3594 82.8486 40.2471C82.5947 40.1299 82.2969 40.0713 81.9551 40.0713C81.5547 40.0713 81.2202 40.1421 80.9517 40.2837C80.6831 40.4253 80.4683 40.6206 80.3071 40.8696C80.146 41.1187 80.0288 41.4043 79.9556 41.7266C79.8872 42.0439 79.853 42.3809 79.853 42.7373ZM84.9873 41.9902L84.0791 42.2686C84.084 41.834 84.1548 41.4165 84.2915 41.0161C84.4331 40.6157 84.6357 40.2593 84.8994 39.9468C85.168 39.6343 85.4976 39.3877 85.8882 39.207C86.2788 39.0215 86.7256 38.9287 87.2285 38.9287C87.6533 38.9287 88.0293 38.9849 88.3564 39.0972C88.6885 39.2095 88.9668 39.3828 89.1914 39.6172C89.4209 39.8467 89.5942 40.1421 89.7114 40.5034C89.8286 40.8647 89.8872 41.2944 89.8872 41.7925V47H88.5249V41.7778C88.5249 41.3335 88.4541 40.9893 88.3125 40.7451C88.1758 40.4961 87.9805 40.3228 87.7266 40.2251C87.4775 40.1226 87.1797 40.0713 86.833 40.0713C86.5352 40.0713 86.2715 40.1226 86.042 40.2251C85.8125 40.3276 85.6196 40.4692 85.4634 40.6499C85.3071 40.8257 85.1875 41.0283 85.1045 41.2578C85.0264 41.4873 84.9873 41.7314 84.9873 41.9902ZM96.6108 45.645V41.5654C96.6108 41.2529 96.5474 40.9819 96.4204 40.7524C96.2983 40.5181 96.1128 40.3374 95.8638 40.2104C95.6147 40.0835 95.3071 40.02 94.9409 40.02C94.5991 40.02 94.2988 40.0786 94.04 40.1958C93.7861 40.313 93.5859 40.4668 93.4395 40.6572C93.2979 40.8477 93.2271 41.0527 93.2271 41.2725H91.8721C91.8721 40.9893 91.9453 40.7085 92.0918 40.4302C92.2383 40.1519 92.4482 39.9004 92.7217 39.6758C93 39.4463 93.332 39.2656 93.7178 39.1338C94.1084 38.9971 94.543 38.9287 95.0215 38.9287C95.5977 38.9287 96.1055 39.0264 96.5449 39.2217C96.9893 39.417 97.3359 39.7124 97.585 40.1079C97.8389 40.4985 97.9658 40.9893 97.9658 41.5801V45.2715C97.9658 45.5352 97.9878 45.8159 98.0317 46.1138C98.0806 46.4116 98.1514 46.668 98.2441 46.8828V47H96.8306C96.7622 46.8438 96.7085 46.6362 96.6694 46.3774C96.6304 46.1138 96.6108 45.8696 96.6108 45.645ZM96.8452 42.1953L96.8599 43.1475H95.4902C95.1045 43.1475 94.7603 43.1792 94.4575 43.2427C94.1548 43.3013 93.9009 43.3916 93.6958 43.5137C93.4907 43.6357 93.3345 43.7896 93.2271 43.9751C93.1196 44.1558 93.0659 44.3682 93.0659 44.6123C93.0659 44.8613 93.1221 45.0884 93.2344 45.2935C93.3467 45.4985 93.5151 45.6621 93.7397 45.7842C93.9692 45.9014 94.25 45.96 94.582 45.96C94.9971 45.96 95.3633 45.8721 95.6807 45.6963C95.998 45.5205 96.2495 45.3057 96.4351 45.0518C96.6255 44.7979 96.728 44.5513 96.7427 44.312L97.3213 44.9639C97.2871 45.1689 97.1943 45.396 97.043 45.645C96.8916 45.894 96.689 46.1333 96.4351 46.3628C96.186 46.5874 95.8882 46.7754 95.5415 46.9268C95.1997 47.0732 94.814 47.1465 94.3843 47.1465C93.8472 47.1465 93.376 47.0415 92.9707 46.8315C92.5703 46.6216 92.2578 46.3408 92.0332 45.9893C91.8135 45.6328 91.7036 45.2349 91.7036 44.7954C91.7036 44.3706 91.7866 43.9971 91.9526 43.6748C92.1187 43.3477 92.3579 43.0767 92.6704 42.8618C92.9829 42.6421 93.3589 42.4761 93.7983 42.3638C94.2378 42.2515 94.7285 42.1953 95.2705 42.1953H96.8452ZM103.415 39.0752V40.1152H99.1304V39.0752H103.415ZM100.581 37.1489H101.936V45.0371C101.936 45.3057 101.977 45.5083 102.06 45.645C102.143 45.7817 102.25 45.8721 102.382 45.916C102.514 45.96 102.656 45.9819 102.807 45.9819C102.919 45.9819 103.037 45.9722 103.159 45.9526C103.286 45.9282 103.381 45.9087 103.444 45.894L103.452 47C103.344 47.0342 103.203 47.0659 103.027 47.0952C102.856 47.1294 102.648 47.1465 102.404 47.1465C102.072 47.1465 101.767 47.0806 101.489 46.9487C101.21 46.8169 100.988 46.5972 100.822 46.2896C100.661 45.9771 100.581 45.5571 100.581 45.0298V37.1489ZM108.293 47.1465C107.741 47.1465 107.241 47.0537 106.792 46.8682C106.347 46.6777 105.964 46.4116 105.642 46.0698C105.324 45.728 105.08 45.3228 104.909 44.854C104.738 44.3853 104.653 43.8726 104.653 43.3159V43.0083C104.653 42.3638 104.748 41.79 104.938 41.2871C105.129 40.7793 105.388 40.3496 105.715 39.998C106.042 39.6465 106.413 39.3804 106.828 39.1997C107.243 39.019 107.673 38.9287 108.117 38.9287C108.684 38.9287 109.172 39.0264 109.582 39.2217C109.997 39.417 110.336 39.6904 110.6 40.042C110.864 40.3887 111.059 40.7988 111.186 41.2725C111.313 41.7412 111.376 42.2539 111.376 42.8105V43.4185H105.458V42.3125H110.021V42.21C110.002 41.8584 109.929 41.5166 109.802 41.1846C109.68 40.8525 109.484 40.5791 109.216 40.3643C108.947 40.1494 108.581 40.042 108.117 40.042C107.81 40.042 107.526 40.1079 107.268 40.2397C107.009 40.3667 106.787 40.5571 106.601 40.811C106.416 41.0649 106.271 41.375 106.169 41.7412C106.066 42.1074 106.015 42.5298 106.015 43.0083V43.3159C106.015 43.6919 106.066 44.0459 106.169 44.3779C106.276 44.7051 106.43 44.9932 106.63 45.2422C106.835 45.4912 107.082 45.6865 107.37 45.8281C107.663 45.9697 107.995 46.0405 108.366 46.0405C108.845 46.0405 109.25 45.9429 109.582 45.7476C109.914 45.5522 110.205 45.291 110.454 44.9639L111.274 45.6157C111.103 45.8745 110.886 46.1211 110.622 46.3555C110.358 46.5898 110.034 46.7803 109.648 46.9268C109.267 47.0732 108.815 47.1465 108.293 47.1465ZM117.954 45.4619V35.75H119.316V47H118.071L117.954 45.4619ZM112.622 43.1255V42.9717C112.622 42.3662 112.695 41.8169 112.841 41.3237C112.993 40.8257 113.205 40.3984 113.479 40.042C113.757 39.6855 114.086 39.4121 114.467 39.2217C114.853 39.0264 115.283 38.9287 115.756 38.9287C116.254 38.9287 116.689 39.0166 117.06 39.1924C117.436 39.3633 117.753 39.6147 118.012 39.9468C118.276 40.2739 118.483 40.6694 118.635 41.1333C118.786 41.5972 118.891 42.1221 118.95 42.708V43.3818C118.896 43.9629 118.791 44.4854 118.635 44.9492C118.483 45.4131 118.276 45.8086 118.012 46.1357C117.753 46.4629 117.436 46.7144 117.06 46.8901C116.684 47.061 116.245 47.1465 115.742 47.1465C115.278 47.1465 114.853 47.0464 114.467 46.8462C114.086 46.646 113.757 46.3652 113.479 46.0039C113.205 45.6426 112.993 45.2178 112.841 44.7295C112.695 44.2363 112.622 43.7017 112.622 43.1255ZM113.984 42.9717V43.1255C113.984 43.521 114.023 43.8921 114.101 44.2388C114.184 44.5854 114.311 44.8906 114.482 45.1543C114.653 45.418 114.87 45.6255 115.134 45.7769C115.397 45.9233 115.712 45.9966 116.079 45.9966C116.528 45.9966 116.896 45.9014 117.185 45.7109C117.478 45.5205 117.712 45.269 117.888 44.9565C118.063 44.644 118.2 44.3047 118.298 43.9385V42.1733C118.239 41.9048 118.154 41.646 118.042 41.397C117.934 41.1431 117.792 40.9185 117.617 40.7231C117.446 40.5229 117.233 40.3643 116.979 40.2471C116.73 40.1299 116.435 40.0713 116.093 40.0713C115.722 40.0713 115.402 40.1494 115.134 40.3057C114.87 40.457 114.653 40.667 114.482 40.9355C114.311 41.1992 114.184 41.5068 114.101 41.8584C114.023 42.2051 113.984 42.5762 113.984 42.9717ZM126.618 35.75V47H125.256V35.75H126.618ZM130.266 39.0752V47H128.903V39.0752H130.266ZM128.801 36.9731C128.801 36.7534 128.867 36.5679 128.999 36.4165C129.135 36.2651 129.335 36.1895 129.599 36.1895C129.858 36.1895 130.056 36.2651 130.192 36.4165C130.334 36.5679 130.405 36.7534 130.405 36.9731C130.405 37.1831 130.334 37.3638 130.192 37.5151C130.056 37.6616 129.858 37.7349 129.599 37.7349C129.335 37.7349 129.135 37.6616 128.999 37.5151C128.867 37.3638 128.801 37.1831 128.801 36.9731ZM132.434 35.75H133.796V45.4619L133.679 47H132.434V35.75ZM139.15 42.9717V43.1255C139.15 43.7017 139.082 44.2363 138.945 44.7295C138.808 45.2178 138.608 45.6426 138.344 46.0039C138.081 46.3652 137.758 46.646 137.377 46.8462C136.997 47.0464 136.56 47.1465 136.066 47.1465C135.563 47.1465 135.122 47.061 134.741 46.8901C134.365 46.7144 134.047 46.4629 133.789 46.1357C133.53 45.8086 133.322 45.4131 133.166 44.9492C133.015 44.4854 132.91 43.9629 132.851 43.3818V42.708C132.91 42.1221 133.015 41.5972 133.166 41.1333C133.322 40.6694 133.53 40.2739 133.789 39.9468C134.047 39.6147 134.365 39.3633 134.741 39.1924C135.117 39.0166 135.554 38.9287 136.052 38.9287C136.55 38.9287 136.992 39.0264 137.377 39.2217C137.763 39.4121 138.085 39.6855 138.344 40.042C138.608 40.3984 138.808 40.8257 138.945 41.3237C139.082 41.8169 139.15 42.3662 139.15 42.9717ZM137.788 43.1255V42.9717C137.788 42.5762 137.751 42.2051 137.678 41.8584C137.604 41.5068 137.487 41.1992 137.326 40.9355C137.165 40.667 136.953 40.457 136.689 40.3057C136.425 40.1494 136.101 40.0713 135.715 40.0713C135.373 40.0713 135.075 40.1299 134.821 40.2471C134.572 40.3643 134.36 40.5229 134.184 40.7231C134.008 40.9185 133.864 41.1431 133.752 41.397C133.645 41.646 133.564 41.9048 133.51 42.1733V43.9385C133.588 44.2803 133.715 44.6099 133.891 44.9272C134.072 45.2397 134.311 45.4961 134.609 45.6963C134.912 45.8965 135.285 45.9966 135.729 45.9966C136.096 45.9966 136.408 45.9233 136.667 45.7769C136.931 45.6255 137.143 45.418 137.304 45.1543C137.47 44.8906 137.592 44.5854 137.67 44.2388C137.749 43.8921 137.788 43.521 137.788 43.1255ZM142.219 40.3203V47H140.864V39.0752H142.182L142.219 40.3203ZM144.694 39.0312L144.687 40.291C144.575 40.2666 144.467 40.252 144.365 40.2471C144.267 40.2373 144.155 40.2324 144.028 40.2324C143.715 40.2324 143.439 40.2812 143.2 40.3789C142.961 40.4766 142.758 40.6133 142.592 40.7891C142.426 40.9648 142.294 41.1748 142.197 41.4189C142.104 41.6582 142.043 41.9219 142.014 42.21L141.633 42.4297C141.633 41.9512 141.679 41.502 141.772 41.082C141.87 40.6621 142.019 40.291 142.219 39.9688C142.419 39.6416 142.673 39.3877 142.98 39.207C143.293 39.0215 143.664 38.9287 144.094 38.9287C144.191 38.9287 144.304 38.9409 144.431 38.9653C144.558 38.9849 144.646 39.0068 144.694 39.0312ZM150.327 45.645V41.5654C150.327 41.2529 150.263 40.9819 150.136 40.7524C150.014 40.5181 149.829 40.3374 149.58 40.2104C149.331 40.0835 149.023 40.02 148.657 40.02C148.315 40.02 148.015 40.0786 147.756 40.1958C147.502 40.313 147.302 40.4668 147.155 40.6572C147.014 40.8477 146.943 41.0527 146.943 41.2725H145.588C145.588 40.9893 145.661 40.7085 145.808 40.4302C145.954 40.1519 146.164 39.9004 146.438 39.6758C146.716 39.4463 147.048 39.2656 147.434 39.1338C147.824 38.9971 148.259 38.9287 148.737 38.9287C149.313 38.9287 149.821 39.0264 150.261 39.2217C150.705 39.417 151.052 39.7124 151.301 40.1079C151.555 40.4985 151.682 40.9893 151.682 41.5801V45.2715C151.682 45.5352 151.704 45.8159 151.748 46.1138C151.796 46.4116 151.867 46.668 151.96 46.8828V47H150.546C150.478 46.8438 150.424 46.6362 150.385 46.3774C150.346 46.1138 150.327 45.8696 150.327 45.645ZM150.561 42.1953L150.576 43.1475H149.206C148.82 43.1475 148.476 43.1792 148.173 43.2427C147.871 43.3013 147.617 43.3916 147.412 43.5137C147.207 43.6357 147.05 43.7896 146.943 43.9751C146.835 44.1558 146.782 44.3682 146.782 44.6123C146.782 44.8613 146.838 45.0884 146.95 45.2935C147.062 45.4985 147.231 45.6621 147.456 45.7842C147.685 45.9014 147.966 45.96 148.298 45.96C148.713 45.96 149.079 45.8721 149.396 45.6963C149.714 45.5205 149.965 45.3057 150.151 45.0518C150.341 44.7979 150.444 44.5513 150.458 44.312L151.037 44.9639C151.003 45.1689 150.91 45.396 150.759 45.645C150.607 45.894 150.405 46.1333 150.151 46.3628C149.902 46.5874 149.604 46.7754 149.257 46.9268C148.916 47.0732 148.53 47.1465 148.1 47.1465C147.563 47.1465 147.092 47.0415 146.687 46.8315C146.286 46.6216 145.974 46.3408 145.749 45.9893C145.529 45.6328 145.419 45.2349 145.419 44.7954C145.419 44.3706 145.502 43.9971 145.668 43.6748C145.834 43.3477 146.074 43.0767 146.386 42.8618C146.699 42.6421 147.075 42.4761 147.514 42.3638C147.954 42.2515 148.444 42.1953 148.986 42.1953H150.561ZM155.168 40.3203V47H153.813V39.0752H155.131L155.168 40.3203ZM157.644 39.0312L157.636 40.291C157.524 40.2666 157.417 40.252 157.314 40.2471C157.216 40.2373 157.104 40.2324 156.977 40.2324C156.665 40.2324 156.389 40.2812 156.149 40.3789C155.91 40.4766 155.708 40.6133 155.542 40.7891C155.375 40.9648 155.244 41.1748 155.146 41.4189C155.053 41.6582 154.992 41.9219 154.963 42.21L154.582 42.4297C154.582 41.9512 154.628 41.502 154.721 41.082C154.819 40.6621 154.968 40.291 155.168 39.9688C155.368 39.6416 155.622 39.3877 155.93 39.207C156.242 39.0215 156.613 38.9287 157.043 38.9287C157.141 38.9287 157.253 38.9409 157.38 38.9653C157.507 38.9849 157.595 39.0068 157.644 39.0312ZM161.254 46.1797L163.459 39.0752H164.909L161.73 48.2231C161.657 48.4185 161.56 48.6284 161.438 48.853C161.32 49.0825 161.169 49.2998 160.983 49.5049C160.798 49.71 160.573 49.876 160.31 50.0029C160.051 50.1348 159.741 50.2007 159.379 50.2007C159.272 50.2007 159.135 50.186 158.969 50.1567C158.803 50.1274 158.686 50.103 158.618 50.0835L158.61 48.9849C158.649 48.9897 158.71 48.9946 158.793 48.9995C158.881 49.0093 158.942 49.0142 158.977 49.0142C159.284 49.0142 159.545 48.9727 159.76 48.8896C159.975 48.8115 160.156 48.6772 160.302 48.4868C160.454 48.3013 160.583 48.0449 160.69 47.7178L161.254 46.1797ZM159.636 39.0752L161.694 45.2275L162.045 46.6558L161.071 47.1538L158.156 39.0752H159.636Z" fill="#121213"/>
<path d="M41.4534 34H16.4534C14.5159 34 13.5472 34 12.7524 34.2172C10.5956 34.8066 8.91092 36.5251 8.33301 38.7249" stroke="#2563EB" stroke-width="3"/>
<path d="M16.667 14.875H33.3337" stroke="#2563EB" stroke-width="3" stroke-linecap="round"/>
<path d="M16.667 22.3125H27.0837" stroke="#2563EB" stroke-width="3" stroke-linecap="round"/>
<path d="M20.833 46.75C14.9404 46.75 11.9942 46.75 10.1636 44.8828C8.33301 43.0155 8.33301 40.0103 8.33301 34V17C8.33301 10.9896 8.33301 7.98439 10.1636 6.11719C11.9942 4.25 14.9404 4.25 20.833 4.25H29.1663C35.0588 4.25 38.0051 4.25 39.8357 6.11719C41.6663 7.98439 41.6663 10.9896 41.6663 17M29.1663 46.75C35.0588 46.75 38.0051 46.75 39.8357 44.8828C41.6663 43.0155 41.6663 40.0103 41.6663 34V25.5" stroke="#2563EB" stroke-width="3" stroke-linecap="round"/>
</svg>
